<?xml version="1.0" encoding="utf-8"?>
<!-- Generator: Adobe Illustrator 23.0.1, SVG Export Plug-In . SVG Version: 6.00 Build 0)  -->
<svg version="1.1" id="Layer_1" xmlns="http://www.w3.org/2000/svg" xmlns:xlink="http://www.w3.org/1999/xlink" x="0px" y="0px"
	 viewBox="0 0 1280 1024" style="enable-background:new 0 0 1280 1024;" xml:space="preserve">
<style type="text/css">
	.st0{fill:none;}
	.st1{fill:#29ACE3;}
	.st2{fill:#DFDFDF;}
	.st3{fill:#ED3C95;}
</style>
<rect id="XMLID_7_" x="322.3" y="260.55" transform="matrix(-1 -1.224647e-16 1.224647e-16 -1 1330 913.5505)" class="st0" width="685.41" height="392.45"/>
<g id="XMLID_8_">
	<path id="XMLID_1_" class="st1" d="M1117.62,711.79c-18.28,10.4-166.88,175.12-397.36,166.73
		c-230.48-8.39-280.23-125.58-587.54-53.98l5.99,189.26l996.28-31.64L1117.62,711.79z"/>
	<path id="XMLID_9_" class="st2" d="M1139.1,736.51c-18.6,9.81-172.33,169.73-402.43,154.04c-230.1-15.7-276.12-134.41-585.53-72.6
		v189.36h996.78L1139.1,736.51z"/>
	<path id="XMLID_10_" class="st3" d="M1139.1,746.32c-18.6,9.81-172.33,169.73-402.43,154.04c-230.1-15.7-276.12-134.41-585.53-72.6
		v189.36h996.78L1139.1,746.32z"/>
</g>
</svg>
